<svg width="326" height="63" viewBox="0 0 326 63" fill="none" xmlns="http://www.w3.org/2000/svg">
<path d="M35.5961 28.1651L32.9927 25.4644L55.7787 7.06662H41.9656L24.1842 21.4323L24.0957 21.4957L11.6095 31.5758V15.4984L2.95262 20.5575V49.7073L26.2062 30.9419L28.8475 33.6553L51.8863 57.5051H63.9554L35.5961 28.1651Z" fill="#FA7835"/>
<path d="M31.9484 43.2159L25.8949 36.9649L1.33514e-05 58H13.7626L27.6389 47.4888L33.5408 52.9916L41.629 52.9663L31.9358 43.2412L31.9484 43.2159Z" fill="#FA7835" fill-opacity="0.5"/>
<path d="M89.3878 26L83.8848 18.0455L81.5115 20.7318V26H77.782V7.74369H81.5115V15.5417L88.3446 7.74369H92.9869L86.4146 15.1766L93.8736 26H89.3878ZM95.3303 26V7.74369H107.484V11.0559H99.0598V15.2288H107.223V18.5149H99.0598V22.6878H107.484V26H95.3303ZM109.975 26V7.74369H113.705V22.6878H122.129V26H109.975ZM125.999 26L120.183 7.74369H124.147L129.363 24.9307L134.553 7.74369H138.335L132.493 26H125.999ZM139.85 26V7.74369H143.58V26H139.85ZM149.891 20.4188C150.178 22.0358 151.351 23.0268 153.386 23.0268C155.211 23.0268 156.411 22.0879 156.411 20.9143C156.411 17.3935 146.526 19.6364 146.526 12.8815C146.526 9.80405 149.473 7.48289 153.229 7.48289C157.089 7.48289 159.671 9.59541 160.114 12.5686L156.333 13.3249C156.046 11.7601 154.898 10.6908 153.099 10.6908C151.482 10.6908 150.386 11.5254 150.386 12.6729C150.386 16.0373 160.271 13.7944 160.271 20.81C160.271 23.9396 157.193 26.2608 153.281 26.2608C149.317 26.2608 146.579 24.2526 146.109 21.1751L149.891 20.4188ZM162.149 16.8718C162.149 11.5775 166.322 7.48289 171.747 7.48289C177.171 7.48289 181.344 11.5775 181.344 16.8718C181.344 22.1662 177.171 26.2608 171.747 26.2608C166.322 26.2608 162.149 22.1662 162.149 16.8718ZM166.009 16.8718C166.009 20.2362 168.513 22.8443 171.747 22.8443C175.007 22.8443 177.484 20.2362 177.484 16.8718C177.484 13.5075 175.007 10.8994 171.747 10.8994C168.513 10.8994 166.009 13.5075 166.009 16.8718ZM183.632 26V7.74369H190.856L196.229 25.1915V7.74369H199.958V26H192.708L187.361 8.55219V26H183.632ZM210.604 26V7.74369H217.489L220.723 25.035L223.983 7.74369H230.764V26H227.243V8.70867L223.983 26H217.385L214.125 8.57827V26H210.604ZM232.273 26L238.428 7.74369H245.052L251.207 26H247.217L245.913 22.0358H237.333L236.055 26H232.273ZM238.402 18.7236H244.844L241.636 8.83907L238.402 18.7236ZM252.73 26V7.74369H260.58C264.492 7.74369 267.022 10.2474 267.022 13.6118C267.022 16.2198 265.509 18.3324 262.979 19.1408L267.517 26H263.084L258.807 19.506H256.459V26H252.73ZM256.459 16.0894H260.58C262.145 16.0894 263.188 15.0201 263.188 13.5857C263.188 12.1252 262.145 11.0559 260.58 11.0559H256.459V16.0894ZM268.559 16.8718C268.559 11.5775 272.732 7.48289 278.157 7.48289C282.408 7.48289 285.459 10.0388 286.685 12.7772L283.243 14.1073C282.382 12.3078 280.53 10.8994 278.157 10.8994C274.923 10.8994 272.419 13.5075 272.419 16.8718C272.419 20.2362 274.923 22.8443 278.157 22.8443C280.53 22.8443 282.382 21.4359 283.243 19.6364L286.685 20.9665C285.459 23.7049 282.408 26.2608 278.157 26.2608C272.732 26.2608 268.559 22.1662 268.559 16.8718ZM288.4 16.8718C288.4 11.5775 292.573 7.48289 297.997 7.48289C303.422 7.48289 307.595 11.5775 307.595 16.8718C307.595 22.1662 303.422 26.2608 297.997 26.2608C292.573 26.2608 288.4 22.1662 288.4 16.8718ZM292.26 16.8718C292.26 20.2362 294.763 22.8443 297.997 22.8443C301.258 22.8443 303.735 20.2362 303.735 16.8718C303.735 13.5075 301.258 10.8994 297.997 10.8994C294.763 10.8994 292.26 13.5075 292.26 16.8718ZM313.25 20.4188C313.537 22.0358 314.711 23.0268 316.745 23.0268C318.57 23.0268 319.77 22.0879 319.77 20.9143C319.77 17.3935 309.886 19.6364 309.886 12.8815C309.886 9.80405 312.833 7.48289 316.588 7.48289C320.448 7.48289 323.03 9.59541 323.474 12.5686L319.692 13.3249C319.405 11.7601 318.257 10.6908 316.458 10.6908C314.841 10.6908 313.746 11.5254 313.746 12.6729C313.746 16.0373 323.63 13.7944 323.63 20.81C323.63 23.9396 320.553 26.2608 316.64 26.2608C312.676 26.2608 309.938 24.2526 309.468 21.1751L313.25 20.4188Z" fill="white"/>
<path d="M78.0919 58V39.2065H89.1264V41.1127H80.1861V47.7978H88.8579V49.704H80.1861V58H78.0919ZM91.5683 58V39.2065H99.0588C102.495 39.2065 104.885 41.5691 104.885 44.6298C104.885 47.4756 102.844 49.7309 99.8374 50.053L105.314 58H102.791L97.3406 50.1067H93.6624V58H91.5683ZM93.6624 48.1468H99.0588C101.234 48.1468 102.737 46.6165 102.737 44.6298C102.737 42.643 101.234 41.1127 99.0588 41.1127H93.6624V48.1468ZM106.71 48.6032C106.71 43.1531 110.952 38.938 116.456 38.938C121.96 38.938 126.202 43.1531 126.202 48.6032C126.202 54.0534 121.96 58.2685 116.456 58.2685C110.952 58.2685 106.71 54.0534 106.71 48.6032ZM108.858 48.6032C108.858 52.9526 112.187 56.3354 116.456 56.3354C120.751 56.3354 124.054 52.9526 124.054 48.6032C124.054 44.2539 120.751 40.8711 116.456 40.8711C112.187 40.8711 108.858 44.2539 108.858 48.6032ZM129.113 58V39.2065H133.221L142.886 57.5704V39.2065H144.98V58H140.873L131.207 39.6629V58H129.113ZM153.323 58V41.1127H146.96V39.2065H161.78V41.1127H155.418V58H153.323ZM160.275 52.0935V50.2947H166.289V52.0935H160.275ZM169.175 58V39.2065H180.747V41.1127H171.27V47.6636H180.478V49.5429H171.27V56.0938H180.747V58H169.175ZM183.727 58V39.2065H187.834L197.5 57.5704V39.2065H199.594V58H195.486L185.821 39.6629V58H183.727ZM203.024 58V39.2065H209.655C215.078 39.2065 219.159 43.2874 219.159 48.6032C219.159 53.9191 215.078 58 209.655 58H203.024ZM205.118 56.0938H209.521C213.816 56.0938 217.011 52.8721 217.011 48.6032C217.011 44.3076 213.816 41.1127 209.521 41.1127H205.118V56.0938Z" fill="white"/>
</svg>
